<svg xmlns="http://www.w3.org/2000/svg" viewBox="0 0 64 64" width="64" height="64">
  <title>Financial Planning Icon</title>
  <defs>
    <linearGradient id="bgGradient" x1="0%" y1="0%" x2="0%" y2="100%">
      <stop offset="0%" style="stop-color:#0A2F5C;stop-opacity:1" />
      <stop offset="100%" style="stop-color:#14437D;stop-opacity:1" />
    </linearGradient>
  </defs>
  <circle cx="32" cy="32" r="30" fill="url(#bgGradient)" />
  
  <path d="M32 12 L14 24 L14 36 C14 46 21 53 32 58 C43 53 50 46 50 36 L50 24 L32 12 Z M 32 19.5 L 44 27.5 L 44 36 C 44 43.5 38.5 49 32 52.5 C 25.5 49 20 43.5 20 36 L 20 27.5 L 32 19.5 Z" fill="#1B5E20" opacity="0.3"/> <path d="M20 38 L26 32 L34 40 L46 22 L48 22 L48 38 L42 38 L42 28 L34 46 L26 38 L20 44 Z" fill="#2ECC71"/> <path d="M46 22 L48 22 L48 28 L42 28 L42 22 L46 22 Z" fill="#2ECC71"/> </svg>